
        <svg xmlns="http://www.w3.org/2000/svg" xmlns:xlink="http://www.w3.org/1999/xlink" version="1.1" width="3300" 
        height="2681.9290366013934" viewBox="0 -75 3300 2681.9290366013934">
			<rect fill="#118df0" width="3300" height="2681.9290366013934"/>
			<g transform="scale(15) translate(10, 10)">
				<defs id="SvgjsDefs1529"></defs><g id="SvgjsG1530" featureKey="symbolFeature-0" transform="matrix(0.9589040941710061,0,0,0.9589040941710061,52.506852647291325,-7.589041785847481)" fill="#0e2f56"><g xmlns="http://www.w3.org/2000/svg"><path d="M95.4,45C92.8,21.9,73.3,4.5,50,4.5C26.8,4.5,7.3,21.9,4.7,44.9l-1.8-0.2c2.8-23.9,23-42,47.1-42   c24.2,0,44.5,18.1,47.1,42.1L95.4,45z"></path></g><g xmlns="http://www.w3.org/2000/svg"><path d="M15.3,39.1l-1.2-0.5c0.3-0.9,8.4-21.5,15.5-22.7c7.1-1.1,19.6,14.6,20.1,15.3l-1,0.8c-3.5-4.4-13.6-15.6-18.9-14.8   C24.5,18.1,17.5,33.3,15.3,39.1z"></path></g><g xmlns="http://www.w3.org/2000/svg"><path d="M74.9,35.5c0,0-1.2-2.2-2.8-4.5c-2.7-3.9-4.1-4.8-4.6-4.9c-1.7-0.5-6.6,3.5-9.4,6.6l-0.9-0.9c0.1-0.1,1.9-2,4-3.8   c3.1-2.6,5.3-3.6,6.7-3.1c3,0.9,7.7,9.1,8.2,10L74.9,35.5z"></path></g><g xmlns="http://www.w3.org/2000/svg"><path d="M61.7,27.5c-2.4-4-7.1-10.3-9.2-10.3c-2.1,0-6.2,5.1-8.2,8.3l-1.1-0.7c0.6-0.9,5.8-8.9,9.3-8.9c3.5,0,9.6,9.8,10.3,10.9   L61.7,27.5z"></path></g><g xmlns="http://www.w3.org/2000/svg"><path stroke="#0e2f56" stroke-width="1.8031" stroke-miterlimit="10" d="M96.3,44.9" fill="#0e2f56"></path></g><g xmlns="http://www.w3.org/2000/svg"><path stroke="#0e2f56" stroke-width="1.8031" stroke-miterlimit="10" d="M3.8,44.8" fill="#0e2f56"></path></g><g xmlns="http://www.w3.org/2000/svg"><g><path d="M56.8,35.1c0.7,5.3-6.1,5.1-6.1,8.3c0,4.1,9.9,4,9.9,9.9c0,8.1-13.3,9.4-13.3,15.7c0,9.3,30.6,11.8,37.5,12.2    c7.4-8.2,11.8-19.1,11.8-31c0-1.8-0.1-3.5-0.3-5.2l-0.1-1.1c0,0-11.9-11.1-41.6-12.2C55.4,32.6,56.7,34,56.8,35.1z"></path><path d="M85.1,82.1l-0.4,0c-3.6-0.2-13-1-21.5-2.8C52,76.8,46.3,73.3,46.3,68.9c0-3.4,3.3-5.5,6.5-7.5c3.4-2.1,6.9-4.4,6.9-8.2    c0-2.7-2.5-3.9-5.1-5.2c-2.3-1.1-4.8-2.3-4.8-4.7c0-1.8,1.6-2.8,3-3.7c2.1-1.3,3.4-2.2,3.1-4.5c0-0.2-0.3-1.1-2-2.9l-1.6-1.6    l2.3,0.1c29.7,1,41.7,12,42.2,12.4l0.2,0.2l0.2,1.4c0.2,1.8,0.3,3.6,0.3,5.3c0,11.7-4.3,22.9-12.1,31.6L85.1,82.1z M56.6,32.7    c0.7,0.9,1,1.6,1.1,2.3c0.5,3.6-2.1,5.2-3.9,6.3c-1.3,0.8-2.2,1.3-2.2,2.1c0,1.2,1.4,2,3.7,3.1c2.7,1.3,6.1,3,6.1,6.8    c0,4.8-4.1,7.4-7.7,9.7c-3,1.9-5.6,3.6-5.6,6c0,3.4,5.3,6.4,15.4,8.6c8.1,1.7,16.9,2.5,20.8,2.7c7.3-8.3,11.3-19,11.3-30.1    c0-1.7-0.1-3.4-0.3-5.1l-0.1-0.7C93.5,42.8,81.9,34,56.6,32.7z"></path></g><g><path d="M29.9,70.9c2-14.3,18.5-11,18.5-16.3c0-6.3-8.7-6.3-8.7-10.4s11.1-6.5,11.1-8.9c0-1.5-1.1-2.8-1.9-3.7    c-30.1,0.3-45,13.2-45,13.2c-0.2,1.8-0.3,3.6-0.3,5.4c0,25.4,20.4,46.1,45.6,46.5C41.3,94.3,27.7,86.7,29.9,70.9z"></path><path d="M55.7,97.7l-6.6-0.1c-12.5-0.2-24.2-5.3-32.9-14.2C7.4,74.5,2.6,62.7,2.6,50.1c0-1.8,0.1-3.7,0.3-5.5l0-0.4l0.3-0.2    c0.2-0.1,3.9-3.3,11.5-6.6c6.9-3,18.5-6.6,34.1-6.8l0.4,0l0.3,0.3c1,1,2.2,2.6,2.2,4.3c0,1.6-2.1,2.7-5,4.1    c-2.6,1.3-6.1,3.1-6.1,4.8c0,1.2,1.2,2,3.2,3.2c2.5,1.4,5.5,3.2,5.5,7.2c0,2.7-2.8,3.6-6.1,4.6c-5,1.6-11.2,3.5-12.4,11.8    c-0.9,6.7,1,12.4,5.6,17.2c4.7,4.7,10.6,6.9,13,7.6L55.7,97.7z M4.6,45.2c-0.2,1.6-0.3,3.3-0.3,4.9c0,12,4.6,23.4,13.1,32    c7,7.2,16,11.7,25.8,13.2c-2.6-1.3-5.5-3.2-8.1-5.8C30,84.3,28,78,29,70.8c1.3-9.4,8.7-11.7,13.6-13.3c3-0.9,4.9-1.6,4.9-2.9    c0-3-2.2-4.3-4.6-5.6c-2-1.2-4.1-2.4-4.1-4.7c0-2.9,3.8-4.8,7.1-6.4c1.4-0.7,3.8-1.9,4-2.5c0-0.8-0.5-1.8-1.4-2.8    C21.4,32.9,6.7,43.6,4.6,45.2z"></path></g></g></g><g id="SvgjsG1531" featureKey="nameFeature-0" transform="matrix(1.2230042972917872,0,0,1.2230042972917872,-0.5860719762550253,101.31380353944564)" fill="#ececda"><path d="M25.32 13.32 c-3.08 8.72 -5.32 20.24 -6.12 28.44 c-1.28 0.96 -4.32 -0.16 -5.28 -1.2 c-1.52 -0.48 -2.8 -1.4 -3.04 -2.2 c-0.48 -1.52 -0.68 -3.16 -0.76 -4.8 c-0.72 2.76 -1.36 5.64 -1.8 8.24 c-0.68 0.64 -4 0.44 -4.84 -1.04 c-1.56 -0.24 -3.04 -1.04 -3 -2.76 c0.16 -9.52 0.24 -17.12 1.68 -26.4 c0.28 -1.88 3.56 -3.28 5.88 -1.72 c-0.12 0.64 -0.2 1.32 -0.32 2.04 c0.52 -0.04 1.04 0.08 1.44 0.36 c-0.12 0.8 -0.28 1.72 -0.4 2.76 c0.44 -1.36 0.88 -2.56 1.28 -3.52 c1.48 -1.72 5.2 -2.48 5.92 -1.36 c-0.08 0.6 -0.12 1.32 -0.2 2.04 c0.68 -0.16 1.2 -0.12 1.4 0.16 c-0.16 1.16 -0.28 2.64 -0.36 4.28 c0.84 -2.96 1.72 -5.76 2.44 -7.84 c1.88 -0.56 5.4 1.2 4.84 2.76 l-0.04 0.2 c0.84 0.36 1.52 0.92 1.28 1.56 z M23.16 11.239999999999998 c0.36 -1.04 -2.08 -1.88 -3.16 -1.64 c-1.48 4.4 -3.92 13.16 -4.8 18.08 c-0.12 0.68 -0.88 0.32 -0.84 -0.36 c0.04 -4.12 0.04 -12.64 0.56 -16.92 c-0.44 -0.36 -2.88 0.36 -4.04 1.64 c-1.4 3.4 -3.12 10.04 -4.88 15.12 c-0.2 0.56 -0.84 0.56 -0.84 -0.04 c0.28 -4.8 1.12 -12.64 1.8 -16.76 c-1.4 -0.8 -3.68 0.36 -3.84 1.4 c-1.4 9.24 -1.48 16.8 -1.64 26.24 c-0.04 1.8 3.8 2.32 4.64 1.68 c0.88 -4.88 2.44 -10.88 4 -15.12 c0.24 -0.68 0.96 -0.6 0.96 0.12 c0.04 4.16 -0.48 9.4 0.76 13.36 c0.28 1 3.76 2.52 5.16 1.6 c0.8 -8.2 3.08 -19.68 6.16 -28.4 z M37 11.760000000000002 c-1.28 9.48 -2.4 19.6 -1.84 29 c-0.72 1 -4.16 2 -4.44 0.88 c-0.08 -0.28 -0.12 -0.64 -0.12 -1.08 c-1.28 0.16 -2.48 0 -2.64 -0.72 c-0.2 -0.84 -0.24 -2.2 -0.16 -3.64 c-0.16 0.04 -0.32 0.12 -0.48 0.2 c-0.4 0.96 -0.84 3 -0.8 4.56 c-1.28 0.84 -3.56 2.08 -4.32 1.4 c-0.2 -0.16 -0.24 -0.72 -0.16 -1.4 c-1.04 0.32 -1.92 0.4 -2.4 0 c-0.92 -0.8 0 -4.32 0.24 -5.44 c1.2 -5.6 3 -11.8 4.8 -17.28 c0.12 -0.48 0.76 -1 1.16 -1.32 c-0.68 0.24 -1.56 0.56 -3.08 1.16 c0.16 -2.52 1.4 -5.92 2.44 -6.84 c1.8 -1.56 6.88 -2.76 10.68 -2.16 c-0.12 0.88 -0.24 1.72 -0.32 2.56 c0.48 0 1 0.04 1.44 0.12 z M34.76 9.920000000000002 c-2.84 -0.4 -7.44 0.8 -8.88 2.08 c-0.72 0.6 -1.76 3.28 -2 4.56 c0.48 -0.16 3.84 -1.6 3.92 -0.32 c0.04 0.6 -2.04 1.92 -2.2 2.32 c-1.76 5.44 -3.52 11.6 -4.72 17.2 c-0.2 0.76 -0.44 1.8 -0.56 2.72 c-0.12 0.84 -0.24 1.56 0 1.72 c0.72 0.64 2.76 -0.56 4 -1.36 c0 -1.56 0.4 -3.56 0.84 -4.56 c1.08 -0.56 2.44 -0.96 3.88 -0.88 c-0.28 2.48 -0.4 5.08 -0.12 6.2 c0.28 1 3.28 0 4.04 -0.92 c-0.56 -9.32 0.52 -19.32 1.8 -28.76 z M30.28 17.72 c-0.28 3.52 -0.76 7.52 -1.2 11.04 c-0.76 0.08 -2.12 0.32 -3.08 0.68 c0.8 -3.92 2.16 -8.16 3.72 -11.72 c0.12 -0.28 0.6 -0.36 0.56 0 z M52.60000000000001 11.239999999999998 c0.16 1.04 -0.36 4.4 -1.64 4.96 c-1.04 0.44 -2.88 -0.04 -4.16 0.52 c-2.2 9.52 -3.28 15.52 -4.04 26.08 c-0.92 0.4 -2.92 -0.32 -3.8 -1.4 c-1.76 -0.4 -3.48 -1.68 -3.28 -3.28 c0.32 -2.72 1.92 -15.28 3.6 -19.92 c-0.48 0.16 -0.88 0.28 -1.2 0.36 c0 -0.6 0.08 -1.24 0.2 -1.88 c-0.88 0.28 -1.88 0.6 -3 0.92 c0 -3 0.76 -5.36 1.96 -6.56 c1.48 -1.52 11.24 -3.12 14.08 -2.44 c0.08 0.6 0.08 1.56 -0.08 2.6 c0.6 -0.04 1.08 -0.04 1.36 0.04 z M50.400000000000006 9.399999999999999 c-1.48 -0.2 -3.84 0.24 -5.36 0.4 c-1.96 0.24 -6.32 1.16 -7.08 1.96 c-0.92 0.88 -1.6 2.8 -1.68 4.52 c0.88 -0.24 5.48 -1.92 5.92 -1 c0.28 0.6 -0.68 1.32 -1.08 1.72 c-0.36 0.36 -0.68 0.72 -0.8 1.2 c-1.76 6.68 -2.84 13.16 -3.64 20.04 c-0.16 1.32 2.68 2.8 3.88 2.4 c0.76 -10.48 1.84 -16.48 4.08 -26.08 c1.44 -0.64 3.2 -0.08 4.24 -0.56 c1.08 -0.44 1.64 -3.44 1.52 -4.6 z M64.92 11.04 c0.12 1.04 -0.76 4.32 -2.04 4.88 c-1.04 0.44 -2.84 0.24 -4.12 0.8 c-0.32 0.68 -0.72 1.92 -1.04 3.24 c0.72 -0.16 1.44 -0.28 2.4 -0.28 c0.28 1.08 0.2 2.12 -0.08 3 c0.52 -0.12 1.04 -0.2 1.48 -0.2 c0.4 1.76 -0.92 3.92 -2.08 4.72 c-0.64 0.44 -2.2 0.72 -3 1.04 c-0.36 1.2 -0.64 3.12 -0.88 4.88 l2.76 -0.84 c0.24 1.24 0.2 2.4 0 3.44 c0.48 -0.16 0.92 -0.32 1.4 -0.44 c0.4 1.92 -0.72 4.32 -1.56 5 c-1.56 1.24 -4.8 1.96 -6.68 1.56 c-0.48 -0.08 -0.92 -0.56 -1.04 -1.08 c-0.4 -0.04 -0.8 -0.08 -1.12 -0.12 c-0.96 -0.2 -1.8 -1.24 -1.72 -2.4 c0.64 -7.08 1.88 -13.56 3.36 -20.24 c0.16 -0.76 0.64 -1.28 1.16 -1.72 c-0.28 0.08 -0.6 0.2 -0.88 0.28 c-0.52 0.16 -0.96 0.24 -2 0.2 c0.08 -2.44 1.28 -5.08 2.48 -6.24 c1.44 -1.44 9.44 -2.72 11.96 -2.12 c0.04 0.64 0 1.6 -0.24 2.56 c0.64 0 1.16 0 1.48 0.08 z M62.760000000000005 9.2 c-2 -0.32 -9.24 0.96 -10.36 2.04 c-0.96 0.92 -1.96 3.12 -2.12 4.56 c1.04 -0.2 2.12 -0.8 3.16 -0.88 c0.96 -0.08 0.76 0.68 0.32 1.16 c-0.6 0.64 -1.6 1.24 -1.8 2.12 c-1.48 6.64 -2.72 13.08 -3.36 20.12 c-0.04 0.64 0.44 1.24 0.92 1.32 c1.84 0.36 5 -0.32 6.52 -1.52 c0.76 -0.6 1.76 -2.8 1.52 -4.56 c-1.4 0.4 -3.16 1.04 -4.56 1.04 c0.16 -1.8 0.6 -6.24 1.28 -8.52 c0.8 -0.32 2.4 -0.6 3.04 -1.04 c1.08 -0.76 2.32 -2.72 2.04 -4.36 c-0.6 0.04 -1.28 0.2 -2 0.4 c-0.8 0.24 -1.56 0.48 -2.44 0.6 c0.16 -2.6 1.04 -5.76 1.68 -7.12 c1.08 -0.44 2.2 -0.44 3.36 -0.6 c0.32 -0.04 0.6 -0.12 0.84 -0.24 c1.12 -0.48 1.96 -3.36 1.96 -4.52 z M75.84 17.08 c0.24 4.44 -0.76 9.68 -4.2 12.8 c0.48 4.48 0.84 6.24 2.44 10.52 c-0.96 0.96 -3.32 3.04 -4 1.36 c-0.12 -0.32 -0.24 -0.6 -0.36 -0.96 c-1.04 0.36 -1.96 0.28 -2.4 -0.72 c-0.28 -0.76 -0.56 -1.56 -0.76 -2.32 c-0.16 1.68 -0.2 3.28 -0.16 4.44 c-1.64 0.72 -3.92 0.12 -4.2 -1.04 c-1.56 -0.12 -2.92 -0.84 -2.84 -2.32 c0.32 -6.36 1.92 -14.48 3.36 -21.56 c0.12 -0.52 0.48 -0.92 0.84 -1.28 c-0.52 0.16 -1.12 0.44 -2.6 0.84 c0.28 -2.04 0.56 -4.56 1.64 -6.36 c1.04 -1.8 5.08 -2.72 7.64 -2.28 c2.2 0.4 3.28 2.12 3.92 3.92 c1.2 1.2 1.6 3.24 1.68 4.96 z M73.64 15.120000000000001 c-0.12 -2.52 -0.96 -5.44 -3.6 -5.92 c-2.4 -0.44 -5.84 0.52 -6.6 1.8 c-0.72 1.24 -1.08 3.04 -1.28 4.48 c0.84 -0.32 2.04 -1 2.88 -0.52 c0.96 0.48 -1.2 1.88 -1.32 2.52 c-1.44 7 -3.04 15.08 -3.36 21.4 c-0.04 1 2.08 1.88 3.84 1.2 c-0.12 -3 0.48 -8.36 0.96 -11.4 c0.08 -0.44 0.64 -0.28 0.72 0.16 c0.32 1.68 0.52 3.6 0.92 5.48 c0.36 1.92 0.84 3.84 1.48 5.36 c0.6 1.52 2.64 -0.4 3.56 -1.32 c-1.56 -4.24 -1.92 -6 -2.44 -10.56 c3.48 -3.12 4.48 -8.28 4.24 -12.68 z M69.52000000000001 14.68 c1.72 2.88 0.08 6.92 -1.04 8.64 c-0.4 0.6 -1.64 1.68 -2.52 1.68 c0.6 -4 1 -6.68 1.96 -10.44 c0.68 -0.24 1.32 -0.28 1.6 0.12 z M95.92 17.52 c-3.48 1.92 -7.08 5.72 -6.4 8.8 c1.04 1.32 2.24 2.44 2.68 4.04 c0.88 1.36 1.68 2.68 1.16 4.6 c-0.8 3.12 -3.28 6.76 -6.56 7.4 c-0.8 0.12 -1.48 -0.4 -2 -1.2 c-2.04 0.2 -3.64 -3 -4 -5.44 c2.8 -0.92 4.56 -2.08 5.08 -4 c0.52 -1.76 -0.92 -2.32 -1.92 -3.32 c-1.16 -1.08 -1.76 -2.32 -1.92 -3.92 c-0.48 -5.48 5.28 -12.52 10.88 -16.56 c0.76 0.52 1.52 1.68 2.04 3 c1.4 1 2.68 5.64 0.96 6.6 z M93.84 15.36 c1.44 -0.8 0.4 -5.12 -0.92 -6.2 c-5.04 3.68 -10.32 10.36 -9.88 15.24 c0.16 1.92 1.04 2.8 2.36 3.96 c1.04 0.88 2 1.72 1.44 3.64 c-0.64 2.36 -2.76 3.64 -4.92 4.4 c0.28 1.56 1.4 4.04 2.84 3.76 c3.16 -0.6 5.6 -4.16 6.44 -7.24 c0.88 -3.44 -2.36 -5.16 -3.64 -7.84 c-1.56 -3.32 2.52 -7.68 6.28 -9.72 z M108.2 13.879999999999999 c2.28 7.8 0.12 16.84 -2.96 22.96 c-1.04 2.12 -2.64 4.48 -5.32 4.48 c-0.96 0 -1.92 -0.56 -2.56 -1.24 c-1.56 -0.28 -2.88 -1.48 -3.36 -2.68 c-1.8 -4.8 -0.92 -11.44 0.24 -16.4 c0.84 -3.48 2.16 -6.84 4.04 -9.92 c1.04 -1.68 2.84 -2.88 4.84 -2.72 c1.88 0.16 3.4 1.68 3.88 3.32 c0.04 0.12 0.08 0.28 0.12 0.44 c0.52 0.52 0.92 1.12 1.08 1.76 z M106.04 11.920000000000002 c-0.4 -1.24 -1.6 -2.44 -3 -2.56 c-1.52 -0.12 -3.04 0.8 -3.88 2.24 c-1.84 2.96 -3.12 6.24 -3.92 9.64 c-1.2 4.92 -2 11.32 -0.28 15.8 c0.36 1 1.64 2.08 2.96 2.08 c2.52 0 4.08 -2.24 5.16 -4.36 c3.04 -6.12 5.2 -15.08 2.96 -22.84 z M103.28 22.64 c-0.48 3.84 -2.16 8.72 -3.96 10.72 c-0.44 0.44 -1.36 0.68 -1.52 -0.48 c-0.72 -5.68 0.48 -11.76 3.2 -16.6 c0.32 -0.56 1.32 -1.04 1.76 -0.4 c0.88 1.28 0.8 4.72 0.52 6.76 z M102.48 19.76 c-1.64 3.36 -2.56 7.2 -2.68 11.08 c1.16 -2.24 2.16 -5.52 2.52 -8.36 c0.08 -0.84 0.16 -1.8 0.16 -2.72 z M125.84 11.399999999999999 c-2.04 8.32 -5.56 21.8 -5.2 29.96 c-1.48 -0.04 -3.44 0 -4.16 -1.28 c-1.48 0.84 -3.4 1.44 -4.52 0.88 c-0.52 -0.28 -0.96 -0.6 -1.4 -1.04 c-2.68 -0.28 -4.12 -3.04 -4.08 -6.84 c0.08 -7.28 2.52 -15.8 4.4 -22.84 c1.84 0.08 4.24 0.44 5.8 2.4 c-0.16 0.36 -0.28 0.72 -0.4 1.04 c0.44 0.2 0.84 0.48 1.2 0.8 c0.36 -1.68 0.76 -3.28 1.16 -4.84 c1.24 -0.76 4.04 -1.96 6.08 -0.6 l-0.48 2.12 c0.6 -0.08 1.16 -0.04 1.6 0.24 z M123.6 9.52 c-1.04 -0.56 -3.08 0.16 -4.08 0.76 c-1.72 6.76 -3.56 15 -4.44 23.04 c-1 0.72 -2.04 1.2 -2.76 0.76 c-1.28 -0.8 -0.88 -4.64 0.44 -11.4 c0.64 -3.12 1.36 -5.96 2.76 -9.84 c-0.92 -1.12 -2.72 -1.48 -3.88 -1.56 c-0.76 2.76 -1.76 6.48 -2.6 10.36 c-0.84 3.96 -1.52 8.04 -1.56 11.44 c-0.04 3.76 1.12 4.96 2.56 5.72 c1 0.48 2.88 -0.04 4.52 -1 c0.4 0.76 1 1.04 1.76 1.2 c0.68 0.12 1.44 0.12 2.12 0.16 c-0.16 -4.08 0.64 -9.44 1.68 -14.76 c1.08 -5.36 2.48 -10.76 3.48 -14.88 z M116.64 18.12 c-0.72 2.36 -1.24 4.4 -1.68 6.6 c-0.72 3.68 -1.16 6.44 -1.2 8.32 c0.12 -0.08 0.24 -0.16 0.36 -0.28 c0.56 -4.88 1.48 -9.88 2.52 -14.64 z M137.2 17.08 c0.24 4.44 -0.76 9.68 -4.2 12.8 c0.48 4.48 0.84 6.24 2.44 10.52 c-0.96 0.96 -3.32 3.04 -4 1.36 c-0.12 -0.32 -0.24 -0.6 -0.36 -0.96 c-1.04 0.36 -1.96 0.28 -2.4 -0.72 c-0.28 -0.76 -0.56 -1.56 -0.76 -2.32 c-0.16 1.68 -0.2 3.28 -0.16 4.44 c-1.64 0.72 -3.92 0.12 -4.2 -1.04 c-1.56 -0.12 -2.92 -0.84 -2.84 -2.32 c0.32 -6.36 1.92 -14.48 3.36 -21.56 c0.12 -0.52 0.48 -0.92 0.84 -1.28 c-0.52 0.16 -1.12 0.44 -2.6 0.84 c0.28 -2.04 0.56 -4.56 1.64 -6.36 c1.04 -1.8 5.08 -2.72 7.64 -2.28 c2.2 0.4 3.28 2.12 3.92 3.92 c1.2 1.2 1.6 3.24 1.68 4.96 z M135 15.120000000000001 c-0.12 -2.52 -0.96 -5.44 -3.6 -5.92 c-2.4 -0.44 -5.84 0.52 -6.6 1.8 c-0.72 1.24 -1.08 3.04 -1.28 4.48 c0.84 -0.32 2.04 -1 2.88 -0.52 c0.96 0.48 -1.2 1.88 -1.32 2.52 c-1.44 7 -3.04 15.08 -3.36 21.4 c-0.04 1 2.08 1.88 3.84 1.2 c-0.12 -3 0.48 -8.36 0.96 -11.4 c0.08 -0.44 0.64 -0.28 0.72 0.16 c0.32 1.68 0.52 3.6 0.92 5.48 c0.36 1.92 0.84 3.84 1.48 5.36 c0.6 1.52 2.64 -0.4 3.56 -1.32 c-1.56 -4.24 -1.92 -6 -2.44 -10.56 c3.48 -3.12 4.48 -8.28 4.24 -12.68 z M130.88 14.68 c1.72 2.88 0.08 6.92 -1.04 8.64 c-0.4 0.6 -1.64 1.68 -2.52 1.68 c0.6 -4 1 -6.68 1.96 -10.44 c0.68 -0.24 1.32 -0.28 1.6 0.12 z M149.20000000000002 17.04 c-4.84 2.72 -8.96 9.08 -8.2 16.56 c0.08 0.04 0.2 0.12 0.28 0.16 c1.08 0.48 2.8 -0.64 4.92 -2.2 c0.36 1.2 0.48 2.68 0.32 4.12 c0.44 -0.24 0.84 -0.52 1.24 -0.8 c0.4 1.36 0 5.12 -1.64 6.6 c-1.36 1.2 -4.04 1.48 -5.56 0.24 c-0.2 -0.16 -0.36 -0.32 -0.56 -0.48 c-0.72 -0.16 -1.36 -0.44 -1.96 -0.88 c-4.96 -4 -4.12 -13.56 -2.16 -18.72 c2.44 -6.48 7.44 -12.28 11.24 -13.6 c0.36 0.44 0.8 1.76 1.08 3.24 c0.24 -0.12 0.44 -0.2 0.64 -0.28 c0.36 0.44 1.84 5.2 0.36 6.04 z M147.12 14.879999999999999 c1.32 -0.76 0.08 -4.8 -0.36 -5.64 c-2.84 1.12 -7.6 6.48 -9.96 12.76 c-1.92 5.16 -2.52 14.04 1.88 17.56 c1.44 1.16 4 0.92 5.32 -0.24 c1.44 -1.32 1.88 -4.6 1.64 -6.12 c-1.4 1 -3.44 2.08 -4.76 1.48 c-1.2 -0.56 -1.92 -1.84 -2.08 -2.96 c-0.8 -7.6 3.36 -14.08 8.32 -16.84 z M164.00000000000003 11.04 c0.12 1.04 -0.76 4.32 -2.04 4.88 c-1.04 0.44 -2.84 0.24 -4.12 0.8 c-0.32 0.68 -0.72 1.92 -1.04 3.24 c0.72 -0.16 1.44 -0.28 2.4 -0.28 c0.28 1.08 0.2 2.12 -0.08 3 c0.52 -0.12 1.04 -0.2 1.48 -0.2 c0.4 1.76 -0.92 3.92 -2.08 4.72 c-0.64 0.44 -2.2 0.72 -3 1.04 c-0.36 1.2 -0.64 3.12 -0.88 4.88 l2.76 -0.84 c0.24 1.24 0.2 2.4 0 3.44 c0.48 -0.16 0.92 -0.32 1.4 -0.44 c0.4 1.92 -0.72 4.32 -1.56 5 c-1.56 1.24 -4.8 1.96 -6.68 1.56 c-0.48 -0.08 -0.92 -0.56 -1.04 -1.08 c-0.4 -0.04 -0.8 -0.08 -1.12 -0.12 c-0.96 -0.2 -1.8 -1.24 -1.72 -2.4 c0.64 -7.08 1.88 -13.56 3.36 -20.24 c0.16 -0.76 0.64 -1.28 1.16 -1.72 c-0.28 0.08 -0.6 0.2 -0.88 0.28 c-0.52 0.16 -0.96 0.24 -2 0.2 c0.08 -2.44 1.28 -5.08 2.48 -6.24 c1.44 -1.44 9.44 -2.72 11.96 -2.12 c0.04 0.64 0 1.6 -0.24 2.56 c0.64 0 1.16 0 1.48 0.08 z M161.84000000000003 9.2 c-2 -0.32 -9.24 0.96 -10.36 2.04 c-0.96 0.92 -1.96 3.12 -2.12 4.56 c1.04 -0.2 2.12 -0.8 3.16 -0.88 c0.96 -0.08 0.76 0.68 0.32 1.16 c-0.6 0.64 -1.6 1.24 -1.8 2.12 c-1.48 6.64 -2.72 13.08 -3.36 20.12 c-0.04 0.64 0.44 1.24 0.92 1.32 c1.84 0.36 5 -0.32 6.52 -1.52 c0.76 -0.6 1.76 -2.8 1.52 -4.56 c-1.4 0.4 -3.16 1.04 -4.56 1.04 c0.16 -1.8 0.6 -6.24 1.28 -8.52 c0.8 -0.32 2.4 -0.6 3.04 -1.04 c1.08 -0.76 2.32 -2.72 2.04 -4.36 c-0.6 0.04 -1.28 0.2 -2 0.4 c-0.8 0.24 -1.56 0.48 -2.44 0.6 c0.16 -2.6 1.04 -5.76 1.68 -7.12 c1.08 -0.44 2.2 -0.44 3.36 -0.6 c0.32 -0.04 0.6 -0.12 0.84 -0.24 c1.12 -0.48 1.96 -3.36 1.96 -4.52 z"></path></g>
			</g>
		</svg>
	